<svg id="Pictograms" xmlns="http://www.w3.org/2000/svg" viewBox="0 0 240 240"><defs><style>.cls-1{fill:#fff;}.cls-2{fill:#e35500;}.cls-3,.cls-4,.cls-5{fill:#f0ab00;}.cls-4{opacity:0.7;}.cls-5{opacity:0.4;}</style></defs><title>281074-pictogram-neg</title><path class="cls-1" d="M8,152H30.76a24.34,24.34,0,0,0-7.54,8H8v4H25.62l.56-1.08a20,20,0,0,1,35.64,0l.56,1.08H177.62l.56-1.08a20,20,0,0,1,35.64,0l.56,1.08H232v-4H216.77a24.34,24.34,0,0,0-7.54-8H232v-4H8Zm174.76,0a24.34,24.34,0,0,0-7.54,8H64.77a24.34,24.34,0,0,0-7.54-8Zm28.9-72H172v60h60V116ZM188,84h21.33l18.09,32H188Zm-12,0h8v32h-8Zm52,52H176V120h52ZM44,160a12,12,0,1,0,12,12A12,12,0,0,0,44,160Zm0,20a8,8,0,1,1,8-8A8,8,0,0,1,44,180Zm152-20a12,12,0,1,0,12,12A12,12,0,0,0,196,160Zm0,20a8,8,0,1,1,8-8A8,8,0,0,1,196,180Z"/><rect class="cls-2" x="46" y="22" width="80" height="156" transform="translate(-14 186) rotate(-90)"/><rect class="cls-3" x="76" y="52" width="20" height="156" transform="translate(-44 216) rotate(-90)"/><rect class="cls-4" x="76" y="32" width="20" height="156" transform="translate(-24 196) rotate(-90)"/><rect class="cls-5" x="76" y="12" width="20" height="156" transform="translate(-4 176) rotate(-90)"/></svg>