<svg xmlns="http://www.w3.org/2000/svg" viewBox="0 0 248 248"><defs><style>.cls-1{fill:#fff;}.cls-2{fill:#4fb81c;}.cls-3,.cls-4,.cls-5{fill:#f0ab00;}.cls-4{opacity:0.7;}.cls-5{opacity:0.4;}</style></defs><title>283625-pictogram-neg</title><g id="outlines_--_combound_path" data-name="outlines -- combound path"><path class="cls-1" d="M181.24,129H159.05V105.53a88.93,88.93,0,0,0-2.9-8.88h2.9v-4h-4.56c-.16-.35-.33-.7-.49-1v10.91a92.14,92.14,0,0,1,4.4,26.5H108.58V96.65h19.73a165.61,165.61,0,0,1,3,24.78V91.56C128.14,78.36,123.48,68,117.87,62a44.88,44.88,0,0,1,15.37,8.42A11.42,11.42,0,0,1,136,67.57c-.77-.64-1.54-1.26-2.33-1.85,1,.43,2.05.9,3.07,1.38a11.3,11.3,0,0,1,5.62-1.63,74.19,74.19,0,0,0-35.8-9.17h-2V205.7h2A74.78,74.78,0,0,0,181.24,133h33.53v-4ZM108.58,60.56c7.24,1.85,14.5,13.58,18.86,32.09H108.58ZM135.49,133H158.4a90.51,90.51,0,0,1-6.52,32.35H132.37A178.53,178.53,0,0,0,135.49,133Zm-26.91,0h22.91a172.89,172.89,0,0,1-3.18,32.35H108.58Zm0,68.44V169.36h18.86C123.08,187.87,115.81,199.59,108.58,201.45Zm22.95-32.09h18.59c-7.28,15.31-18.78,26.56-32.24,30.65C123.64,193.86,128.41,183.08,131.52,169.36Zm2.17,26.93c8.57-6.39,15.75-15.7,20.79-26.93h11.46A71.11,71.11,0,0,1,133.7,196.29Zm34.65-30.93H156.16A94.6,94.6,0,0,0,162.4,133h14.84A70.22,70.22,0,0,1,168.35,165.36ZM154,76.82a11.32,11.32,0,0,0-.78-4.12,75.33,75.33,0,0,1,7.56,7,11.28,11.28,0,0,0-1.57,4.2A71.3,71.3,0,0,0,154,78.62Z"/></g><g id="color_band" data-name="color band"><path class="cls-2" d="M104.58,168.37V205.7a74.73,74.73,0,0,1,0-149.4V168.37Zm38.06-108a8.84,8.84,0,1,0-8.84-8.84A8.84,8.84,0,0,0,142.63,60.4Zm16.58,23.46a11.36,11.36,0,0,1,22.58,1.8V129H159.05V85.66A11.39,11.39,0,0,1,159.21,83.86ZM136.76,67.09a11.3,11.3,0,0,1,5.62-1.63h.25A11.4,11.4,0,0,1,154,76.82V129H131.26V76.82A11.32,11.32,0,0,1,136,67.57C136.27,67.4,136.51,67.25,136.76,67.09Zm52.61,2.15a8.84,8.84,0,1,1,8.84,8.84A8.84,8.84,0,0,1,189.37,69.24ZM161.58,60.4a8.84,8.84,0,1,1,8.84,8.84A8.84,8.84,0,0,1,161.58,60.4Zm48,68.61H186.84V94.5a11.37,11.37,0,0,1,22.74,0Z"/></g><g id="_100_band" data-name="100% band"><path class="cls-3" d="M178.29,64.41H162.55a8.84,8.84,0,1,1,15.74,0ZM151.48,51.55a8.84,8.84,0,1,0-8.84,8.84A8.84,8.84,0,0,0,151.48,51.55Zm46.74,8.84a8.83,8.83,0,0,0-7.4,4h14.8A8.83,8.83,0,0,0,198.21,60.4ZM41.86,93.64h62.71V56.3A74.69,74.69,0,0,0,41.86,93.64Z"/></g><g id="_70_band" data-name="70% band"><path class="cls-4" d="M181.79,85.66v.42H159.05v-.42a11.37,11.37,0,1,1,22.74,0ZM170.42,69.24a8.84,8.84,0,0,0,7.87-4.84H162.55A8.83,8.83,0,0,0,170.42,69.24Zm18.95,0a8.84,8.84,0,1,0,16.24-4.84h-14.8A8.8,8.8,0,0,0,189.37,69.24ZM154,86.07V76.82a11.37,11.37,0,0,0-22.74,0v9.26Zm36.6,0h15.22a11.32,11.32,0,0,0-15.22,0ZM41.86,93.64a74.36,74.36,0,0,0-10,37.37h72.73V93.64Z"/></g><g id="_40_band" data-name="40% band"><path class="cls-5" d="M190.6,86.07h15.22a11.33,11.33,0,0,1,3.76,8.43v13.24H186.84V94.5A11.33,11.33,0,0,1,190.6,86.07ZM154,107.75V86.07H131.26v21.67Zm27.79,0V86.07H159.05v21.67ZM31.84,131a74.36,74.36,0,0,0,10,37.36h62.71V131Z"/></g></svg>