<svg id="Pictograms" xmlns="http://www.w3.org/2000/svg" viewBox="0 0 240 240"><defs><style>.cls-1{fill:#fff;}.cls-2{fill:#008fd3;}.cls-3,.cls-4,.cls-5{fill:#f0ab00;}.cls-3{opacity:0.4;}.cls-4{opacity:0.7;}</style></defs><title>281418-pictogram-neg</title><path class="cls-1" d="M200.08,140.83a9.66,9.66,0,0,0,.76-.62L227.37,132l-1.18-3.82-22.42,6.94a9.7,9.7,0,0,0-6.95-11.42l-70-18.77,23.83-6.11-1-3.87-44.09,11.3a5.69,5.69,0,0,1-2.83-11l35.4-9.07h0l12.06-3.09a14,14,0,0,1,6.53.24l11.37,3.84a17,17,0,0,0,5.14.73,15.25,15.25,0,0,0,3.66-.4l36.59-9.38-1-3.87-36.59,9.38a14,14,0,0,1-6.53-.24L158,79.5a17.94,17.94,0,0,0-8.8-.33l-16.41,4.21h0L119,86.91,94.52,80.35h0l-3.58-1a17.92,17.92,0,0,0-8.8.23L70.72,83.34a14,14,0,0,1-6.53.17L31.57,74.77A6,6,0,0,0,24.22,79L11.85,125.15A6.24,6.24,0,0,0,16,132.64l22.73,7.18a9.68,9.68,0,0,0,7.77,17.45l2.35-.6a9.68,9.68,0,0,0,11.4,13h0l7.32-1.88a9.68,9.68,0,0,0,11.4,13h0l39.54-10.13,21.9,5.85L160,181.69h0a9.68,9.68,0,0,0,11.55-12.83l7.29,2a9.64,9.64,0,0,0,7.35-1A9.66,9.66,0,0,0,190.43,158l2.35.63a9.69,9.69,0,0,0,7.31-17.77ZM45.48,153.39a5.69,5.69,0,1,1-2.83-11l-.07-.27A7.73,7.73,0,0,1,44,143.78l2.3,4A12.83,12.83,0,0,0,50.76,152Zm6.83,8.26a5.7,5.7,0,0,1,4.09-6.92l1.39-.36,22.46,6-3,.77h0l-1.85.47-1.25.32h0l-14.9,3.82A5.7,5.7,0,0,1,52.3,161.65ZM71,172.73a5.7,5.7,0,0,1,4.09-6.92l13-3.34,22.46,6-28.73,7.36h0l-3.92,1A5.7,5.7,0,0,1,71,172.73Zm129.75-22a5.7,5.7,0,0,1-7,4l-9.9-2.65h0l-59.74-16-1,3.86,30.2,8.09h0L182.88,156a5.69,5.69,0,0,1-3,11l-14.85-4h0l-44.88-12-1,3.86,44.88,12a5.69,5.69,0,0,1-3,11l-19.16-5.13h0l-.48-.13-19.81-5.31h0l-35.91-9.62v0l-31.3-8.36a9.23,9.23,0,0,1-4.65-3.56l-2.3-4a14,14,0,0,0-6.94-5.58l-23.35-7.37a2.23,2.23,0,0,1-1.45-2.64L28.08,80a2,2,0,0,1,2.45-1.42l32.62,8.74a17.93,17.93,0,0,0,8.8-.23l11.41-3.71a14,14,0,0,1,6.53-.17l11.41,3.06h0l9.78,2.62-9.38,2.4a9.69,9.69,0,1,0,4.81,18.78l12.36-3.17,76.9,20.61a5.69,5.69,0,1,1-2.95,11l-23.55-6.31L128.83,121.4l-1,3.86,4.1,1.1h0L156.62,133l40.13,10.75a5.69,5.69,0,0,1,4,7Z"/><rect class="cls-2" x="-9.21" y="91.53" width="70.04" height="24.62" transform="translate(-81.17 101.9) rotate(-75)"/><rect class="cls-2" x="202.67" y="69.89" width="24.62" height="70.04" transform="translate(-19.31 56.65) rotate(-14.37)"/><rect class="cls-3" x="19.32" y="83.07" width="17.51" height="24.62" transform="translate(-71.32 97.82) rotate(-75)"/><rect class="cls-4" x="14.79" y="99.99" width="17.51" height="24.62" transform="translate(-91.02 105.97) rotate(-75)"/><rect class="cls-5" x="10.26" y="116.9" width="17.51" height="24.62" transform="translate(-110.71 114.13) rotate(-75)"/><rect class="cls-3" x="200.5" y="87.67" width="24.62" height="17.51" transform="translate(-17.28 55.85) rotate(-14.37)"/><rect class="cls-4" x="204.85" y="104.63" width="24.62" height="17.51" transform="translate(-21.35 57.46) rotate(-14.37)"/><rect class="cls-5" x="209.19" y="121.59" width="24.62" height="17.51" transform="translate(-25.42 59.06) rotate(-14.37)"/></svg>