<svg id="Pictograms" xmlns="http://www.w3.org/2000/svg" viewBox="0 0 240 240"><defs><style>.cls-1{fill:#fff;}.cls-2{fill:#e35500;}.cls-3,.cls-4,.cls-5{fill:#f0ab00;}.cls-3{opacity:0.4;}.cls-4{opacity:0.7;}</style></defs><title>281464-pictogram-neg</title><path class="cls-1" d="M150.94,64a8.13,8.13,0,0,0,.06-1,8,8,0,0,0-14.39-4.81A64,64,0,0,0,65,152.71a8,8,0,0,0,9.64,12.41A63.36,63.36,0,0,0,120,184,64,64,0,0,0,150.94,64ZM143,59a4,4,0,1,1-4,4A4,4,0,0,1,143,59ZM71,162a4,4,0,1,1,4-4A4,4,0,0,1,71,162Zm49,18a59.39,59.39,0,0,1-42.37-17.54,8,8,0,0,0-9.32-12,60,60,0,0,1,66.76-88.54,8,8,0,0,0,14.38,5.8A60,60,0,0,1,120,180Zm92-91a8,8,0,0,0-8-8l-.64,0A92,92,0,0,0,48.67,61.89,8,8,0,0,0,39.74,75,92,92,0,0,0,163,201.33a8,8,0,0,0,13.28-8.57,92.1,92.1,0,0,0,32.38-97.28A8,8,0,0,0,212,89ZM45,65a4,4,0,1,1-4,4A4,4,0,0,1,45,65ZM169,200a4,4,0,1,1,4-4A4,4,0,0,1,169,200Zm4.83-10.38a8,8,0,0,0-12.63,8.15,88,88,0,0,1-117.89-121,8,8,0,0,0,8.34-12.26,88,88,0,0,1,147.9,17.79,8,8,0,0,0,5.38,14.6,88.1,88.1,0,0,1-31.12,92.68ZM204,93a4,4,0,1,1,4-4A4,4,0,0,1,204,93Z"/><path class="cls-2" d="M137.5,88.83a36,36,0,1,0,18,31.17A35.82,35.82,0,0,0,137.5,88.83Z"/><path class="cls-3" d="M101.5,151.17a35.82,35.82,0,0,0,18,4.83V84a35.82,35.82,0,0,0-18,4.83Z"/><path class="cls-4" d="M137.5,151.17V88.83a35.82,35.82,0,0,0-18-4.83v72A35.82,35.82,0,0,0,137.5,151.17Z"/><path class="cls-5" d="M137.5,88.83v62.34a36,36,0,0,0,0-62.34Z"/></svg>