<svg xmlns="http://www.w3.org/2000/svg" viewBox="0 0 248 248"><defs><style>.cls-1{fill:#fff;}.cls-2{fill:#e35500;}.cls-3,.cls-4,.cls-5{fill:#f0ab00;}.cls-4{opacity:0.7;}.cls-5{opacity:0.4;}</style></defs><title>283053-pictogram-neg</title><g id="outlines_--_combound_path" data-name="outlines -- combound path"><path class="cls-1" d="M221.89,154.17l-13.11-28.08a16.55,16.55,0,0,0-11.28-8.77,14.61,14.61,0,0,0-3-.27,10.94,10.94,0,0,0,2.31-4.61,8.3,8.3,0,0,0-1.8-7.24,8.1,8.1,0,0,0-4.5-2.7l18.4-15.44L206.37,84,191.74,96.27a7.61,7.61,0,0,0-.6-1.91,7.48,7.48,0,0,0-4.32-4A10.47,10.47,0,0,0,179,91L161.57,99l-14.13-1.43a20,20,0,0,0-3.87-.75v0h-.23V93.07a9.38,9.38,0,0,0,4.31-7.88V74.85L151.23,77V69.32l-5.45,3.25-5.45-3.25V77l3.33-2v10.2a5.38,5.38,0,0,1-5.37,5.38h-2.54a10.65,10.65,0,0,0,1.33-5.36V74.13a11.81,11.81,0,0,1,11.75-11.8h.11a11.81,11.81,0,0,1,11.8,11.79v4.61h-2.11v2a6.41,6.41,0,0,1-6.4,6.41v4a10.42,10.42,0,0,0,10.21-8.41h2.3V74.13A15.8,15.8,0,0,0,149,58.33h-.11a15.83,15.83,0,0,0-15.83,15.8V85.22c0,2.47-1.15,5.36-4.37,5.38h0v4h.05l9.56,0a9.35,9.35,0,0,0,1.05-.06v2.88a10.88,10.88,0,0,0-5.85,4.08,11.38,11.38,0,0,0-6-6.71V70a13.79,13.79,0,0,0-27.58,0v9.15h2.54A11.44,11.44,0,0,0,113.7,88.6v-4a7.43,7.43,0,0,1-7.42-7.42v-2h-2.36V70a9.79,9.79,0,0,1,19.58,0V93.7c-.49-.05-1-.08-1.52-.09v0l-.14,0h-.12v0a17.2,17.2,0,0,0-6.88,2l-17.61,3.6L79.86,91.14a10.7,10.7,0,0,0-6.67-.79,7.71,7.71,0,0,0-5.51,4.28,8,8,0,0,0-.61,1.93L52.35,84.22l-2.57,3.06L69.34,103.7a8.1,8.1,0,0,0-4.55,2.72c-2.71,3.23-2.6,7.6,0,11.2a12.76,12.76,0,0,0-2.41.23c-4.5.89-8.6,4.28-11.29,9.37l-10,20.58-18.67,2.14L4.83,135V168H112c9.61-.05,17.1-4.06,20.55-10.38,3.19,6.3,10.17,10.22,19.37,10.37v0h.52c9-.06,15.67-1.67,24.56-9.61l18.35-17.61,15,27.23h32.54ZM19.81,164h-11V143.62l11,9.34ZM192,107.78a4.27,4.27,0,0,1,.95,3.82,7.64,7.64,0,0,1-2.64,4.08l-.54.44-6.83-7.25L184,108a7.55,7.55,0,0,1,4.25-1.69A4.43,4.43,0,0,1,192,107.78Zm-11.3-13.2a6.51,6.51,0,0,1,4.76-.41,3.52,3.52,0,0,1,2.06,1.88,3.6,3.6,0,0,1-.16,3.39,6,6,0,0,1-1.22,1.53l-.26.22a7.37,7.37,0,0,1-1.62,1l-.59.28-3.57-7.66Zm-18.45,8.52,14.21-6.56,3.58,7.67-16.15,7.53c-4-4-8-8.17-9.2-9.4Zm11.2,8.59-5.2,4.45-1.37-1.39Zm-30.16-10.87a11.62,11.62,0,0,1,8.19,3.93c.86,1,16.55,16.85,16.55,16.85l11.65-10h0l.19-.16,6.82,7.23-20.51,17-16.94-17.65-2.89,2.77L162,137.18H134.65v-26C134.86,104.32,137.69,100.93,143.29,100.82ZM122,97.61c5.64.11,8.48,3.52,8.66,10.39v3.13s0,.06,0,.09v26H102.49L119,117.53,115.91,115l-4.51,5.38-7.86-6.6c4.87-5.82,9.61-11.47,10.26-12.2A11.62,11.62,0,0,1,122,97.61ZM71.3,96.32A3.78,3.78,0,0,1,74,94.26a6.62,6.62,0,0,1,4.13.51l18.55,8.65,12.38-2.53c-2.18,2.58-6,7.11-9.37,11.17l-2.92.84L74.54,102.53a8,8,0,0,1-1.33-.8l-.77-.65a5.54,5.54,0,0,1-1.06-1.39A3.65,3.65,0,0,1,71.3,96.32Zm24.45,20.51-1.87,2.24-8.35-7ZM67.85,109a4.42,4.42,0,0,1,3.71-1.5A7.59,7.59,0,0,1,76,109.27l18.4,15.44,6.6-7.9,7.86,6.59-13,15.5-26.25-22C67.21,114.92,65.66,111.6,67.85,109Zm-44,44.83L39,152.07l-1,2.09-14.23,9.38ZM49.29,164h-19l9.89-6.52H52.84Zm62.54,0h-58l8.29-14.62,15.66-1.8-.46-4L64.7,145.1l3.43-5.8-3.44-2-9.61,16.25H42.79L54.67,129c2.09-4,5.19-6.6,8.5-7.25,3.1-.61,6.32.45,9.57,3.16l23.58,19.61,2.83-3.37h31.52v8.18s0,0,0,.06C130.61,159.47,120.88,164,111.83,164Zm62.47-8.55c-8,7.12-13.71,8.51-22,8.55s-17.64-3.89-17.67-14.63c0,0,0,0,0,0v-8.18h31.22l10.86-9,10.53,10.88Zm22-21.08-6.18,5.88-10.33-10.67,6-5c3.48-2.9,7.24-4.06,10.87-3.35a12.53,12.53,0,0,1,8.47,6.63l12,25.65H207Zm12.89,23.12h10.5L229.6,164H212.77Z"/></g><g id="color_band" data-name="color band"><rect class="cls-2" x="4.84" y="168.04" width="238.07" height="27"/></g><g id="_100_band" data-name="100% band"><rect class="cls-3" x="4.84" y="168.04" width="59.51" height="27"/></g><g id="_70_band" data-name="70% band"><rect class="cls-4" x="64.35" y="168.04" width="59.52" height="27"/></g><g id="_40_band" data-name="40% band"><rect class="cls-5" x="123.87" y="168.04" width="59.51" height="27"/></g></svg>