<svg id="Pictograms" xmlns="http://www.w3.org/2000/svg" viewBox="0 0 240 240"><defs><style>.cls-1{fill:#e35500;}.cls-2,.cls-3,.cls-4{fill:#f0ab00;}.cls-2{opacity:0.4;}.cls-3{opacity:0.7;}.cls-5{fill:#fff;}</style></defs><title>281358-pictogram-neg</title><path class="cls-1" d="M116,48.29A32,32,0,1,0,132,76,31.84,31.84,0,0,0,116,48.29Z"/><path class="cls-2" d="M116,48.29A31.84,31.84,0,0,0,100,44v64a31.84,31.84,0,0,0,16-4.29Z"/><path class="cls-3" d="M84,48.29v55.42A31.84,31.84,0,0,0,100,108V44A31.84,31.84,0,0,0,84,48.29Z"/><path class="cls-4" d="M84,103.71V48.29a32,32,0,0,0,0,55.42Z"/><path class="cls-5" d="M228,114v12c0,5.61-4.17,10-9.5,10H203.33A59.86,59.86,0,0,1,176,175.31V190a10,10,0,0,1-10,10H154a10,10,0,0,1-10-10v-6H92v6a9.77,9.77,0,0,1-9.75,10h-12A10.26,10.26,0,0,1,60,190V177.43A60.56,60.56,0,0,1,28.13,128H20.28a10,10,0,1,1,0-20h10A60.18,60.18,0,0,1,69.3,67a31.76,31.76,0,0,0-1,4.59,56.21,56.21,0,0,0-34.59,38.89L33.33,112h-13a6,6,0,1,0,0,12H32l.06,1.94c.6,20.14,12.72,39.18,30.87,48.5L64,175v15a6.21,6.21,0,0,0,6.25,6h12A5.82,5.82,0,0,0,88,190V180h56.5a5.26,5.26,0,0,1,1.16.15,2.17,2.17,0,0,0,.31.06l2.05-.05,0,2.05V190a6,6,0,0,0,6,6h12a6,6,0,0,0,6-6V173l1-.58a55.88,55.88,0,0,0,26.72-38.8L200,132H218.5c3.14,0,5.5-2.58,5.5-6V114c0-3.42-2.36-6-5.5-6H198.11l-.45-1.37A56.06,56.06,0,0,0,173,76l-1-.58V52c0-1.46-.34-2.06-.46-2.16a4,4,0,0,0-1.79,1.23l-17.7,17.57-1.15-.14a55.44,55.44,0,0,0-6.41-.5H131a31.69,31.69,0,0,0-1.32-4H144.5a52.79,52.79,0,0,1,6.11.44l16.32-16.2c2.85-2.85,5.09-2.52,6.17-2.07S176,48,176,52V73.19A60.06,60.06,0,0,1,201,104H218.5C223.83,104,228,108.39,228,114Zm-56-5.5a8,8,0,0,0,8-8h-4a4,4,0,0,1-8,0h-4A8,8,0,0,0,172,108.5ZM70.34,88A31.69,31.69,0,0,1,69,84H60v16h80V84h-9a31.69,31.69,0,0,1-1.32,4H136v8H64V88Z"/></svg>