<svg xmlns="http://www.w3.org/2000/svg" viewBox="0 0 248 248"><defs><style>.cls-1{fill:#fff;}.cls-2{fill:#008fd3;}.cls-3,.cls-4,.cls-5{fill:#f0ab00;}.cls-4{opacity:0.7;}.cls-5{opacity:0.4;}</style></defs><title>283528-pictogram-neg</title><g id="outlines_--_combound_path" data-name="outlines -- combound path"><path class="cls-1" d="M188.44,68.85a48.66,48.66,0,0,0-93.66-9.78A27.78,27.78,0,0,0,67.4,83.57c-.62,0-1.23-.06-1.84-.06a28.3,28.3,0,1,0,0,56.59H82.11l1.17-2,1.17-2H65.56a24.33,24.33,0,1,1,3.37-48.42l2.15.3.1-2.17A24,24,0,0,1,95.16,63l.92,0,1.48.06L98,61.72a44.68,44.68,0,0,1,86.63,8.92l.16,1.33,1.29.35a32.47,32.47,0,0,1-8.43,63.82h-8.75l-1.17,2-1.17,2H177.7a36.44,36.44,0,0,0,10.73-71.26Z"/></g><g id="color_band" data-name="color band"><polygon class="cls-2" points="168.95 136.13 185.16 108.56 100.65 108.56 84.45 136.13 83.28 138.12 82.11 140.1 65.91 167.68 49.11 196.25 32.31 224.83 116.82 224.83 133.62 196.25 150.41 167.68 166.62 140.1 167.78 138.12 168.95 136.13"/></g><g id="_100_band" data-name="100% band"><polygon class="cls-3" points="167.78 138.12 83.28 138.12 100.65 108.56 185.16 108.56 167.78 138.12"/></g><g id="_70_band" data-name="70% band"><polygon class="cls-4" points="150.41 167.68 65.91 167.68 83.28 138.12 167.78 138.12 150.41 167.68"/></g><g id="_40_band" data-name="40% band"><polygon class="cls-5" points="133.62 196.25 49.11 196.25 65.91 167.68 150.41 167.68 133.62 196.25"/></g></svg>