<svg id="Pictograms" xmlns="http://www.w3.org/2000/svg" viewBox="0 0 240 240"><defs><style>.cls-1{fill:#008fd3;}.cls-2,.cls-3,.cls-4{fill:#f0ab00;}.cls-2{opacity:0.4;}.cls-3{opacity:0.7;}.cls-5{fill:#fff;}</style></defs><title>281105-pictogram-neg</title><rect class="cls-1" x="56" y="59.87" width="128" height="72.24"/><rect class="cls-2" x="56" y="77.93" width="128" height="18.06"/><rect class="cls-3" x="56" y="95.99" width="128" height="18.06"/><rect class="cls-4" x="56" y="114.05" width="128" height="18.06"/><path class="cls-5" d="M196,141.37V48H44v93.37l-24,34V192H220V175.37ZM198.61,152H41.39L47,144H193ZM48,52H192v88H48ZM24,188v-8H216v8Zm76.27-12,2.64-8h34l2.64,8Zm43.49,0-4-12H100l-4,12H24.45l14.12-20H201.43l14.12,20Z"/></svg>