<svg id="Pictograms" xmlns="http://www.w3.org/2000/svg" viewBox="0 0 240 240"><defs><style>.cls-1{fill:#fff;}.cls-2{fill:#008fd3;}.cls-3,.cls-4,.cls-5{fill:#f0ab00;}.cls-4{opacity:0.7;}.cls-5{opacity:0.4;}</style></defs><title>281234-pictogram-neg</title><path class="cls-1" d="M189.3,120.32A117.71,117.71,0,0,0,149.48,145a151.43,151.43,0,0,1-10.72-19.4,118.09,118.09,0,0,1,51-5.73l.1-.93h0l1.19-3.82C167.31,107.73,150.86,91.7,140,76.46a109.35,109.35,0,0,0,26.4-6.54,12.12,12.12,0,0,0,1.44,1.75,12,12,0,1,0-3.52-8.49,12,12,0,0,0,.41,3.08,105.27,105.27,0,0,1-27.37,6.37,139.3,139.3,0,0,1-12-22.31,12,12,0,1,0-11.62-.18,137.33,137.33,0,0,1-11.26,21.38A170.52,170.52,0,0,1,75,65a12.12,12.12,0,0,0,.15-1.79,12,12,0,1,0-12,12,12.1,12.1,0,0,0,2.2-.21,136.68,136.68,0,0,1,3.74,30.44,103.11,103.11,0,0,1-18.38,9.53,12,12,0,1,0,1,4.81c0-.3,0-.59,0-.89a106.43,106.43,0,0,0,17.46-8.74c0,14.67-1.59,33.19-6.23,56l3.92.8c2.9-14.26,6.51-36.76,6.3-59.37a117.71,117.71,0,0,0,31.26-31.58,149.8,149.8,0,0,0,16.07,1.37,214.84,214.84,0,0,0,6.45,28.2,182.39,182.39,0,0,0,6.42,17.8C102.3,134.81,79.08,155.7,68,167.11l2.79,2.7,1.52,3.25c11.11-5.18,34.92-14,61.94-10.49a118.71,118.71,0,0,0-13.66,25.22c-.29,0-.58,0-.88,0a12,12,0,1,0,4.79,1,114.4,114.4,0,0,1,14-25.52A90.13,90.13,0,0,1,165,172.39a12,12,0,1,0,3.14-4.83,121.93,121.93,0,0,1-16.47-19.28,114.41,114.41,0,0,1,39-24.22Zm-18.63-62.8a8,8,0,1,1,0,11.31A8,8,0,0,1,170.66,57.52ZM39.75,127.75a8,8,0,1,1,8-8A8,8,0,0,1,39.75,127.75Zm88,72a8,8,0,1,1-8-8A8,8,0,0,1,127.75,199.75ZM132.83,73c-3.06.19-6.08.27-9,.25-.93-6.64-1.58-13.65-1.93-21.05A143.42,143.42,0,0,0,132.83,73ZM119.75,31.75a8,8,0,1,1-8,8A8,8,0,0,1,119.75,31.75ZM57.52,68.84a8,8,0,1,1,11.31,0A8,8,0,0,1,57.52,68.84Zm15.53,33.88a134.73,134.73,0,0,0-3.91-29.13,11.94,11.94,0,0,0,4.66-4.81,175.78,175.78,0,0,0,26.2,6.5A113.94,113.94,0,0,1,73.05,102.72ZM106.9,72.13a142.4,142.4,0,0,0,10.65-20.59l.26,0c.25,5.4.82,12.87,2.06,21.59C115.38,73,111,72.64,106.9,72.13Zm17.51,5.25h.18c3.56,0,7.19-.14,10.86-.45,9.73,14.15,24.15,29.28,44.57,38.32a124,124,0,0,0-42.9,6.73A185.11,185.11,0,0,1,124.41,77.38ZM71.93,168.85c11.19-11.37,33.52-31,63-41.87a147.9,147.9,0,0,0,11.5,21A117.82,117.82,0,0,0,137,158.92C109,154.61,84.22,163.3,71.93,168.85Zm76.74-17.6a124.72,124.72,0,0,0,12,14.6,93.75,93.75,0,0,0-19.43-6.17A110.58,110.58,0,0,1,148.67,151.25Zm27.65,17.07a8,8,0,1,1-5.66,2.34A8,8,0,0,1,176.32,168.32Z"/><path class="cls-2" d="M220.78,108A24,24,0,1,0,224,120,24,24,0,0,0,220.78,108Z"/><path class="cls-2" d="M64,151.5a24,24,0,1,0,20.78,12A24,24,0,0,0,64,151.5Z"/><path class="cls-3" d="M179.22,108h41.56a24,24,0,0,0-41.56,0Z"/><path class="cls-4" d="M179.22,108A23.88,23.88,0,0,0,176,120h48a23.88,23.88,0,0,0-3.22-12Z"/><path class="cls-5" d="M179.22,132h41.56A23.88,23.88,0,0,0,224,120H176A23.88,23.88,0,0,0,179.22,132Z"/><path class="cls-3" d="M43.22,163.5H84.78a24,24,0,0,0-41.56,0Z"/><path class="cls-4" d="M43.22,163.5a23.88,23.88,0,0,0-3.22,12H88a23.88,23.88,0,0,0-3.22-12Z"/><path class="cls-5" d="M43.22,187.5H84.78a23.88,23.88,0,0,0,3.22-12H40A23.88,23.88,0,0,0,43.22,187.5Z"/></svg>