<svg id="Pictograms" xmlns="http://www.w3.org/2000/svg" viewBox="0 0 240 240"><defs><style>.cls-1{fill:#e35500;}.cls-2,.cls-3,.cls-4{fill:#f0ab00;}.cls-3{opacity:0.7;}.cls-4{opacity:0.4;}.cls-5{fill:#fff;}</style></defs><title>281232-pictogram-neg</title><rect class="cls-1" x="96" y="112" width="116" height="32"/><rect class="cls-2" x="96" y="112" width="29" height="32"/><rect class="cls-3" x="125" y="112" width="29" height="32"/><rect class="cls-4" x="154" y="112" width="29" height="32"/><path class="cls-5" d="M119.67,68.5a20,20,0,1,0-20-20A20,20,0,0,0,119.67,68.5Zm0-36a16,16,0,1,1-16,16A16,16,0,0,1,119.67,32.5ZM100,112H96V100.18a24,24,0,1,1,48,0V112h-4V100.18a20,20,0,1,0-40,0Zm44,32v68H96V144h4v64h40V144ZM76,212H28V124.18a24,24,0,1,1,48,0Zm-44-4H72V124.18a20,20,0,1,0-40,0ZM51.67,92.5a20,20,0,1,1,20-20A20,20,0,0,1,51.67,92.5Zm0-36a16,16,0,1,0,16,16A16,16,0,0,0,51.67,56.5ZM212,212H164V144h4v64h40V112.18a20.15,20.15,0,0,0-20-20.25A19.82,19.82,0,0,0,168,112h-4a23.78,23.78,0,0,1,24-24.07,24.15,24.15,0,0,1,24,24.25ZM207.67,60.5a20,20,0,1,0-20,20A20,20,0,0,0,207.67,60.5Zm-4,0a16,16,0,1,1-16-16A16,16,0,0,1,203.67,60.5Z"/><rect class="cls-1" x="28" y="156" width="116" height="32" transform="translate(172 344) rotate(180)"/><rect class="cls-2" x="115" y="156" width="29" height="32" transform="translate(259 344) rotate(180)"/><rect class="cls-3" x="86" y="156" width="29" height="32" transform="translate(201 344) rotate(180)"/><rect class="cls-4" x="57" y="156" width="29" height="32" transform="translate(143 344) rotate(180)"/></svg>