<svg id="Pictograms" xmlns="http://www.w3.org/2000/svg" viewBox="0 0 240 240"><defs><style>.cls-1{fill:#008fd3;}.cls-2,.cls-3,.cls-4{fill:#f0ab00;}.cls-2{opacity:0.4;}.cls-3{opacity:0.7;}</style></defs><title>282190-pictogram</title><path d="M217.78,134,156,140.77V92.27l18.9-2.36,18-17,25.36-3.41-.53-4L191.09,69.1l-18,17L156,88.23v-44L85.74,36,20,44.24v152L85.76,188,156,196.25V144.79l62.22-6.8ZM124,140.5l28,3.28v17.09l-28-3.16Zm0-4v-48l28,3.28v48ZM84,184.2l-24,3V139.36l24-3.12ZM120,84,88,80.25v-40l20,2.34V63.33l12,12ZM84,132.21l-24,3.12V119.85a8,8,0,1,0-4-.26v17.17L24,168.22V65.36L47.27,88.84,84,84.24ZM58.5,116a4,4,0,1,1,4-4A4,4,0,0,1,58.5,116ZM88,84.28,120,88v48l-32-3.75Zm64,3.47-28-3.28V73.67l-12-12V43.09l40,4.69ZM84,40.24v40L48.73,84.63,24,59.68V47.76ZM24,173.52l.15.15L56,142.38v45.34l-32,4Zm64,10.73v-48L120,140v21.26l32,3.61v26.85Z"/><polygon class="cls-1" points="220 188 156 196 156 44 220 36.5 220 188"/><polygon class="cls-2" points="220 112.25 156 119.75 156 81.88 220 74.38 220 112.25"/><polygon class="cls-3" points="220 150.13 156 157.63 156 119.75 220 112.25 220 150.13"/><polygon class="cls-4" points="220 188 156 196 156 157.63 220 150.13 220 188"/></svg>