<svg id="Pictograms" xmlns="http://www.w3.org/2000/svg" viewBox="0 0 240 240"><defs><style>.cls-1{fill:#008fd3;}.cls-2,.cls-3,.cls-4{fill:#f0ab00;}.cls-3{opacity:0.7;}.cls-4{opacity:0.4;}</style></defs><title>281471-pictogram</title><path d="M139.92,192,135,76.43,141.24,64H124V36h4.61L104,19.6,79.39,36H84V64H70.76L77,76.4,68.15,192H48v20H160V192ZM134.76,68,131,75.57,135.91,192h-16L116,76.35,119.35,68h15.41ZM115.93,192H92.07L96,75.65,93,68H115L112,75.65ZM104,24.4,115.39,32H92.61ZM88,36h32V64H88ZM81,75.6,77.24,68H88.65L92,76.35,88.07,192H72.16ZM156,208H52V196H156Z"/><polygon class="cls-1" points="190 35.41 170 38.31 147 41.22 124 44.13 124 57.42 147 60.19 170 62.96 190 65.73 212 68.5 212 32.5 190 35.41"/><polygon class="cls-2" points="190 65.73 212 68.5 212 32.5 190 35.41 190 65.73"/><polygon class="cls-3" points="190 65.73 190 35.41 170 38.31 170 62.96 190 65.73"/><polygon class="cls-4" points="170 38.31 147 41.22 147 60.19 170 62.96 170 38.31"/></svg>