<svg xmlns="http://www.w3.org/2000/svg" viewBox="0 0 248 248"><defs><style>.cls-1{fill:#970a82;}.cls-2,.cls-3,.cls-4{fill:#f0ab00;}.cls-3{opacity:0.7;}.cls-4{opacity:0.4;}</style></defs><title>282870-pictogram</title><g id="color_band" data-name="color band"><path class="cls-1" d="M109.81,212.24,87.48,228.46,53.88,182.2l46.29-33.63L114,167.64l-1.46,1.06a10.23,10.23,0,0,0-8.1,1.77A10.34,10.34,0,1,0,120.79,180l1.47-1.06,11.51,15.85-19.1,13.88,4.55,6.27,1,0a6.33,6.33,0,0,1,3.63,11.46,6.33,6.33,0,0,1-9.78-7l.29-1ZM164.57,94.58l-2.23,15L158,139.2h13.21l-4.38-29.59ZM162.39,82H150.7V80h0V74.26l.8-.6A6.33,6.33,0,1,0,142,71.43a6.36,6.36,0,0,0,1.87,2.23l.8.6h0V80h0v2h-23.6v19.59h1.79a10.24,10.24,0,0,1,7.59-3.33h0a10.35,10.35,0,0,1,10.34,10.34c0,.34,0,.67-.05,1h0c0,.22-.06.44-.09.65s0,.23-.05.34-.09.39-.14.58-.06.26-.1.38-.12.36-.18.54-.09.26-.14.39-.15.33-.22.5-.12.26-.19.39-.17.31-.26.46l-.23.38-.29.42-.27.37-.32.38-.31.35-.35.35-.36.32-.37.31-.4.3-.38.27-.44.27-.4.22-.48.23-.41.18-.52.19-.41.14-.57.15-.39.1-.66.1-.34,0c-.34,0-.68.05-1,.05h0a10.23,10.23,0,0,1-7.59-3.34h-1.79V139.2h32.83l4.38-29.59Zm-49-33.61-.6-.8a6.26,6.26,0,0,0-6.14-2.44l-.12,0a6.25,6.25,0,0,0-1,.27l-.14.05a6.29,6.29,0,0,0-.89.43l-.1.06a6.36,6.36,0,0,0-.83.6l0,0a6.33,6.33,0,1,0,9.21,8.58l.6-.8h7.74V78h19.6V76.2a10.34,10.34,0,1,1,14,0V78h23.59V20.82h-57.2V48.41Zm64.95,76.42h-5.2l1.54,10.39h3.66V124.83Zm-61.2-13.22h7.74l.6.8a6.23,6.23,0,0,0,6.13,2.44l.12,0a6.25,6.25,0,0,0,1-.27l.14-.05a6.29,6.29,0,0,0,.89-.43l.1-.06a6.36,6.36,0,0,0,.83-.6l0,0a6.34,6.34,0,0,0,2.1-3.78h0a6.32,6.32,0,0,0-11.29-4.8l-.6.8h-7.75V82H97.48v1.82a10.23,10.23,0,0,1,3.33,7.59,10.34,10.34,0,1,1-20.67,0,10.23,10.23,0,0,1,3.33-7.59V82H59.88v46.84c0,.1,0,.2,0,.29V139.2h57.2V111.61Zm51.15-19.56h10V82H166.76Zm10,4h-9.46l1.54,10.39h7.92Zm0,24.78h0V110.44H171l1.54,10.39Z"/></g><g id="_100_band" data-name="100% band"><path class="cls-2" d="M158.3,109.61l-4.38,29.6H121.09V115.61h1.79a10.23,10.23,0,0,0,7.59,3.34h0a10.35,10.35,0,0,0,10.29-9.34Zm-41.22,2h7.75l.6.8a6.31,6.31,0,0,0,11.29-2.8H59.88v29.6h57.21Zm56,13.22,1.54,10.39h3.66V124.83Zm5.2-4V110.44H171l1.54,10.39Zm-15.94-11.22L158,139.21h13.21l-4.38-29.6Z"/></g><g id="_70_band" data-name="70% band"><path class="cls-3" d="M136.81,108.61a6.33,6.33,0,0,1-.09,1H59.88V82H83.47v1.82a10.23,10.23,0,0,0-3.33,7.59,10.34,10.34,0,1,0,20.67,0,10.23,10.23,0,0,0-3.33-7.59V82h19.6v23.6h7.75l.6-.8a6.32,6.32,0,0,1,11.38,3.8Zm31.43-16.56h10V82H166.76ZM150.7,82V80h-6v2h-23.6v19.59h1.79a10.24,10.24,0,0,1,7.59-3.33h0a10.35,10.35,0,0,1,10.34,10.34c0,.34,0,.67-.05,1H158.3L162.39,82Zm11.65,27.6h4.45l-2.23-15Zm15.95-3.17V96.05h-9.46l1.54,10.39Z"/></g><g id="_40_band" data-name="40% band"><path class="cls-4" d="M109.81,212.24,87.49,228.45,71.27,206.14l30.35-22.05c.17.28.34.56.54.83a10.35,10.35,0,0,0,14.44,2.29,10.24,10.24,0,0,0,4.18-7.16l1.47-1.06,11.51,15.85-19.1,13.88,1.18,1.63h0l3.37,4.64,1,0a6.33,6.33,0,0,1,3.63,11.46,6.33,6.33,0,0,1-9.78-7l.29-1L111,213.86ZM107.69,57.75a6.29,6.29,0,0,0,5.06-2.54l.6-.8h7.74V78h19.6V76.2a10.34,10.34,0,1,1,14,0V78h23.59V50.42H101.43a6.29,6.29,0,0,0,6.25,7.32Zm43.81,15.92A6.33,6.33,0,1,0,142,71.43a6.36,6.36,0,0,0,1.87,2.23l.8.6h0V80h6V74.26Z"/></g><g id="outlines_--_combound_path" data-name="outlines -- combound path"><path d="M241.53,117.18H209V94.85l14.28-14.28-2.83-2.83L209,89.19V74.87a12.75,12.75,0,0,1,12.57-12.59H230c7.35,0,7.56,6.75,7.56,7.52h4c0-3.57-2-10-9-11.27V34.87h0a12.45,12.45,0,0,0-24.9,0h0v8.35H210a10.37,10.37,0,0,0,10.16,8.35v-4a6.36,6.36,0,0,1-6.35-6.35v-2h-2.1V34.87h0a8.45,8.45,0,0,1,16.9,0h0V58.28H212.82L193.15,38.69a8.24,8.24,0,0,0-6-2.6h0a8.75,8.75,0,0,0-6,2.5,9.27,9.27,0,0,0-2.8,6.14,8.47,8.47,0,0,0,2.33,6.42l4.54,4.54a9,9,0,0,0-4.07,2.25,9.27,9.27,0,0,0-2.8,6.14,8.46,8.46,0,0,0,2.32,6.42l21.55,21.55H168.24l-1.49-10H178.3V78H154.7V76.2a10.32,10.32,0,0,0,2.52-11.62A10.34,10.34,0,1,0,140.69,76.2V78h-19.6V54.42h-7.74l-.6.8a6.33,6.33,0,1,1-9.21-8.58l0,0a6.36,6.36,0,0,1,.83-.6l.1-.06a6.29,6.29,0,0,1,.89-.43l.14-.05a6.25,6.25,0,0,1,1-.27l.12,0a6.26,6.26,0,0,1,6.14,2.44l.6.8h7.74V20.81h-4v23.6h-1.81a10.23,10.23,0,0,0-7.59-3.33,10.34,10.34,0,0,0,0,20.67,10.23,10.23,0,0,0,7.59-3.33h1.81V78H93.48v7.75l.8.6a6.34,6.34,0,1,1-7.6,0l.8-.6V78H59.87v4h23.6v1.82a10.23,10.23,0,0,0-3.33,7.59,10.34,10.34,0,1,0,20.67,0,10.23,10.23,0,0,0-3.33-7.59V82h19.6v23.6h7.75l.6-.8a6.31,6.31,0,0,1,11.29,4.8h0a6.34,6.34,0,0,1-2.1,3.78l0,0a6.36,6.36,0,0,1-.83.6l-.1.06a6.29,6.29,0,0,1-.89.43l-.14.05a6.25,6.25,0,0,1-1,.27l-.12,0a6.23,6.23,0,0,1-6.13-2.44l-.6-.8h-7.75V139.2h4V115.61h1.79a10.23,10.23,0,0,0,7.59,3.34h0c.35,0,.69,0,1-.05l.34,0,.66-.1.39-.1.57-.15.41-.14.52-.19.41-.18.48-.23.4-.22.44-.27.38-.27.4-.3.37-.31.36-.32.35-.35.31-.35.32-.38.27-.37.29-.42.23-.38c.09-.15.18-.3.26-.46s.13-.26.19-.39.16-.33.22-.5.1-.26.14-.39.13-.35.18-.54.07-.25.1-.38.1-.38.14-.58,0-.23.05-.34.07-.43.09-.65h0c0-.33.05-.66.05-1a10.35,10.35,0,0,0-10.34-10.34h0a10.24,10.24,0,0,0-7.59,3.33h-1.79V82h23.6V80h0V74.27h0l-.8-.6A6.36,6.36,0,0,1,142,71.43a6.34,6.34,0,1,1,9.47,2.23l-.8.6V80h0v2h11.69l-4.09,27.6-4.38,29.59h0l-13.35,90.14a2,2,0,0,0,1.69,2.27l.3,0a2,2,0,0,0,2-1.71L158,139.21h0l4.38-29.59,2.23-15,2.23,15,4.38,29.59h0l8.52,57.56h0l4.91,33.17a2,2,0,0,0,1.69,1.68h.59a2,2,0,0,0,1.69-1.68l2.78-18.78h34.52l2.78,18.77a2,2,0,0,0,2,1.71l.3,0a2,2,0,0,0,1.69-2.27l-3.29-22.19H208.07l7.65-7.23h13.11v-4h-12L215,121.18h26.58Zm-29.75,36.63h0l.26,10.2h-.27Zm0,14.19h.37l.27,10.39h-.64Zm0,14.39h.74l.27,10.39h-1Zm-2.06-61.2H211l.67,25.92-3.83,5.44v29H198.4l-4.57-35Zm-31.43,14h-3.66l-1.54-10.39h27l-.8,5.42-3.12,5Zm26.45-14.39.26-1.74v1.74Zm6.32-58.67a17,17,0,0,0-5.4,8.24h-.12L189.19,54.05,196,47.21ZM183.49,48.35a4.49,4.49,0,0,1-1.19-3.4,5.23,5.23,0,0,1,1.57-3.47,4.77,4.77,0,0,1,3.27-1.39,4.36,4.36,0,0,1,3.14,1.4l2.9,2.9-6.83,6.83Zm0,19.35a4.49,4.49,0,0,1-1.19-3.4,5.24,5.24,0,0,1,1.57-3.47,4.78,4.78,0,0,1,3.27-1.39h0a4.25,4.25,0,0,1,3.13,1.4l2.9,2.9-6.83,6.83Zm5.7,5.7L196,66.57l9,8.94v13.7ZM168.83,96.05h35.54l-1.54,10.39H170.37Zm9.46,14.39h23.95l-1.54,10.39H172.5L171,110.44Zm-3.07,28.78h18.45l-4,6.39.52,4H176.76Zm2.13,14.39h13.36L192.07,164H178.89ZM179.49,168h13.11l.53,4-.94,6.34H181Zm2.13,14.39h10l-.55,3.69-7.1,6.7h-.78Zm5,33.68-.73-4.9h1.45Zm1.32-8.9h-2.64l-1.54-10.39h5.71Zm1.85-14.39,7.66-7.22h10.35v7.22Zm12.46,14.39H192l1.54-10.39H212.9v.32ZM59.88,128.84a8.3,8.3,0,0,0-.29-2.18,8.21,8.21,0,0,0-3.87-5l-12-6.83c1.38-5,2.49-10,2.49-13.14,0-3.53-1.74-7.9-5.32-13.37s-6.66-9.51-11.94-9.51h-6.2V59.67c0-.09,0-.18,0-.27V56.13a8.42,8.42,0,0,1,8.43-8.41h0A8.44,8.44,0,0,1,39.6,56.1v4.37H37.5v2a6.33,6.33,0,0,1-6.33,6.34h0v4h0a10.34,10.34,0,0,0,10.14-8.34H43.6V56.14h0s0,0,0,0h0A12.45,12.45,0,0,0,31.16,43.71h0A12.42,12.42,0,0,0,19.31,52.4a8.82,8.82,0,1,0-.57,14.33V78.82h-.1a9.36,9.36,0,0,0-6.9,2.64c-3,3-3.1,7.29-3.09,8.13h4c0-.14,0-3.39,1.92-5.3a5.46,5.46,0,0,1,4.08-1.46H28.93c3,0,5.18,2.48,8.6,7.7,3.1,4.73,4.67,8.49,4.67,11.17s-.9,6.76-2.08,11.1L38.75,112h0l-4.34-2.46-5.9-17.22-3.78,1.3,6.4,18.66,17,9.62L44,129.39l-7.36-4.09-1.72,3.1H8.64v4H34.9l7.78,47.71h-34v4H30.34l-2.49,32.82H17.06v4H28.82l6.12,6.72H16.52v4H44L31.76,218.21l2.58-34.11h13l-8.65-53,8.8,4.93a8.26,8.26,0,0,0,12.35-6.86C59.88,129,59.88,128.94,59.88,128.84ZM18.1,61.77a4.8,4.8,0,0,1-6.57,1.76A4.81,4.81,0,0,1,9.77,57a4.81,4.81,0,0,1,8.33,4.81Zm37.23,69.17a4.26,4.26,0,0,1-5.81,1.58l-2.08-1.18,4.12-7.45,2.19,1.24a4.26,4.26,0,0,1,1.58,5.81Zm80.79,67.12-15.86,11.52,1.07,1.47a10.23,10.23,0,0,1,7.16,4.18A10.34,10.34,0,1,1,110,219.29l-1.07-1.47L89.83,231.69l-2.35-3.24h0l22.32-16.22,4.55,6.27-.29,1a6.34,6.34,0,1,0,6.15-4.47l-1,0-3.37-4.64-1.18-1.63,19.1-13.88L122.26,179,120.79,180a10.24,10.24,0,0,1-4.18,7.16,10.34,10.34,0,0,1-12.15-16.73,10.23,10.23,0,0,1,8.1-1.77l1.46-1.06-13.86-19.08v0l3.24-2.35,16.22,22.33-6.27,4.55-1-.29a6.34,6.34,0,1,0,4.47,6.15l0-1,6.26-4.55L137,192.47l2.36,3.24Z"/></g></svg>