<svg xmlns="http://www.w3.org/2000/svg" viewBox="0 0 248 248"><defs><style>.cls-1{fill:#970a82;}.cls-2,.cls-3,.cls-4{fill:#f0ab00;}.cls-3{opacity:0.7;}.cls-4{opacity:0.4;}</style></defs><title>283023-pictogram</title><g id="color_band" data-name="color band"><path class="cls-1" d="M134.59,36.7c0,3.61-1.45,5.75-2.84,7.8a15,15,0,0,0-3.2,9.67,3.66,3.66,0,0,1-1.2,2.72,3.58,3.58,0,0,1-2.43,1h-4.4a3.69,3.69,0,0,1-3.62-3.68,15,15,0,0,0-3.2-9.67c-1.41-2.05-2.85-4.19-2.85-7.8a11.91,11.91,0,0,1,11.88-11.89h0A11.9,11.9,0,0,1,134.59,36.7ZM38.39,176.35h8.19V125.82a9.67,9.67,0,0,0-10.08-10l-6.72,0a7.23,7.23,0,0,0-7,7.54v22.7h0v15.1H33.44l0-33.47h4l0,38.38a7.32,7.32,0,0,1-7.32,7.28h-.06A7.23,7.23,0,0,1,22.84,166v-4.83h0v15.13H38.39Zm186,28.67H194.18l11.24-40.43L204.27,158l-6.56,4.15-7-12.91,10.23-5s-3-10.81-2.21-16.09c.86-5.76,6.18-12.3,12-12.3l6.72,0a7.23,7.23,0,0,1,7,7.54Zm0-40.92h-4l-6.68,0,0-6.07h0l-.1-20.55,0-9.7-4,0,0,9.68.1,20.56h0l.05,11a7.33,7.33,0,0,0,7.29,7.36h0a7.32,7.32,0,0,0,7.32-7.3Zm-89-24.52-.31-11.85h4l.3,11.85.3,11.85.3,11.85h23.41l.3-11.85.3-11.85.3-11.85h4l-.3,11.85-.3,11.85-.3,11.85H175v-5.15l0-6.7V123a7.11,7.11,0,0,0-7.11-7.11H135.3a7.11,7.11,0,0,0-7.11,7.11h0v40.28H136l-.31-11.85ZM85.47,205h16.79l-1.49-22.28-1.49-22.28L97.8,138.16l-.29-4.38h4l.29,4.39,1.49,22.28.83,12.51h8.75l-1.15-12.51c-.62-6.76-1.4-15.15-2-22.28,0,0-1.29-13.79-1.37-15.14s-1.93-7.14-7.66-7.14H74.29c-5.74,0-7.58,5.75-7.66,7.14s-1.37,15.14-1.37,15.14c-.65,7.13-1.43,15.52-2,22.28L62.05,173H71l.84-12.52,1.49-22.28.29-4.39h4l-.29,4.38-1.49,22.28L74.3,182.73,72.82,205H85.47Z"/></g><g id="_100_band" data-name="100% band"><path class="cls-2" d="M46.58,125.82V131H37.45v-3.22h-4V131H22.83v-7.56A7.26,7.26,0,0,1,27,116.58a7.92,7.92,0,0,1,2.83-.71H31l5.55,0A9.67,9.67,0,0,1,46.58,125.82Zm27,7.95h4l-.29,4.38H97.8l-.29-4.38h4l.29,4.39h7.87s-1.29-13.79-1.37-15.14-1.93-7.14-7.66-7.14H74.29c-5.74,0-7.58,5.75-7.66,7.14s-1.37,15.14-1.37,15.14h8Zm49.15-109h0A11.91,11.91,0,0,0,111.43,33H134A11.9,11.9,0,0,0,122.72,24.81Zm94.75,91.06-6.72,0c-5.84,0-11.16,6.54-12,12.3a32.27,32.27,0,0,0,.66,9.3h10.23l0-9.68,4,0,0,9.7h10.81v-14A7.23,7.23,0,0,0,217.47,115.87ZM139.1,127.73h36V123a7.11,7.11,0,0,0-7.11-7.11H135.3a7.11,7.11,0,0,0-7.11,7.11h0v4.74h10.9Z"/></g><g id="_70_band" data-name="70% band"><path class="cls-3" d="M110.83,36.7a11.82,11.82,0,0,1,.6-3.71H134a11.84,11.84,0,0,1,.6,3.71,11,11,0,0,1-.94,4.57H111.77A11,11,0,0,1,110.83,36.7ZM209.72,158l-.1-20.56H199.39c.68,3.69,1.55,6.84,1.55,6.84l-10.23,5,7,12.91,6.56-4.15h5.45Zm4,0,10.71,0h0V137.45H213.62ZM168,139.57h7V127.73h-6.71Zm-28.63,0H164l.3-11.85H139.1Zm-4.31-11.85h-6.91v11.85h7.22ZM37.45,146.12h9.14V131H37.45Zm-4-15.14H22.83v15.14H33.45Zm69.84,29.47h8.43c-.62-6.81-1.4-14.86-2-22.28H101.8Zm-30-22.28h-8c-.65,7.43-1.43,15.47-2,22.28h8.58Zm2.52,22.28H99.28L97.8,138.16H77.28Z"/></g><g id="_40_band" data-name="40% band"><path class="cls-4" d="M131.75,44.5a16.92,16.92,0,0,0-2.61,5.06H116.29a16.92,16.92,0,0,0-2.61-5.06,20,20,0,0,1-1.91-3.23h21.88A20.26,20.26,0,0,1,131.75,44.5Zm82,119.57,6.68,0h4v5a7.32,7.32,0,0,1-7.32,7.3h0a7.33,7.33,0,0,1-7.29-7.36l-.05-11h-5.45l1.14,6.53-5.05,18.17h24.07V158l-10.71,0Zm-85.57-24.5v11.85h7.52l-.31-11.85Zm39.55,11.85H175V139.57h-7Zm-28,0h24l.3-11.85H139.4ZM33.44,161.22V146.12H22.83v15.1H33.44Zm4,0h9.14V146.12H37.45Zm38.36-.78L74.3,182.73h26.46l-1.49-22.28ZM66.14,173H71l.84-12.52H63.21c-.66,7.43-1.16,12.52-1.16,12.52h4.09Zm38,0h8.75s-.49-5.08-1.15-12.51h-8.43Z"/></g><g id="outlines_--_combound_path" data-name="outlines -- combound path"><path d="M122.71,68.4a6.87,6.87,0,0,1-6.86-6.86h4a2.86,2.86,0,0,0,5.72,0h4A6.87,6.87,0,0,1,122.71,68.4ZM99.43,220.53l12.64,12.29H67.79v-4H85.47v-5.47H75.69L75,205h4l.51,14.33h5.92V205h4v14.33h6L96,205h4Zm-2.84,2.82H89.47v5.47h12.75ZM124.71,12.47h-4V21h4Zm11.55,14.82-2.83-2.83,6-6,2.83,2.83Zm-27.09,0-6-6L106,18.42l6,6ZM106,54.76l-2.83-2.83,6-6L112,48.72Zm33.51,0-6-6,2.83-2.83,6,6ZM106.75,38.44C95.49,43,93.18,58.06,93.18,79.22h-4c0-14.69.8-30.48,8.71-39.3C64,46.27,41,61.87,41,79.22H37c0-21.13,27.63-39.07,68.74-44.62l.27,2ZM209,79.22h-4c0-17.35-23-33-56.91-39.3,7.91,8.82,8.71,24.61,8.71,39.3h-4c0-21.16-2.31-36.2-13.57-40.79l.75-1.85.27-2C181.39,40.16,209,58.09,209,79.22ZM101.72,96.92V105H99.17C98,110.9,92,112.52,88.61,112.52v-4c.69,0,6.76-.2,6.76-5.47v-2h2.37V96.89a8.08,8.08,0,0,0-1.91-5.14,5.91,5.91,0,0,0-4.43-1.58c-6.31,0-6.9,6.07-6.94,6.7v19H73.85A6.69,6.69,0,0,1,67,109v-2h2a2.76,2.76,0,0,0,2.87-3c0-3.26,3.18-6.7,6.19-6.7h2.41v-.61c.19-3.64,2.72-10.54,10.94-10.54A9.81,9.81,0,0,1,98.68,89,12.09,12.09,0,0,1,101.72,96.92Zm-27.87,15h6.59V101.32H78a3.33,3.33,0,0,0-2.19,2.7,6.77,6.77,0,0,1-4.48,6.55A2.57,2.57,0,0,0,73.85,111.88Zm119.57,52.6,4.29-2.31-1.91-3.52-4.27,2.3a3.32,3.32,0,1,1-3.12-5.87l4.2-2.31-1.91-3.52-4.2,2.31a7.32,7.32,0,0,0,6.91,12.92Zm-26-1.21-.17,6.51c1.8-.78,3.8-2.54,3.8-6.51h4c0,7.42-4.81,9.9-7.91,10.72l-1.26,49.36H153.62v5.47h17.67v4h-43.5l9.69-12.15-1.19-46.61c-3.08-.75-8.19-3.15-8.19-10.79h4c0,4.23,2.22,5.95,4.08,6.65l-.17-6.65-.31-11.85-.31-11.85-.31-11.85h4l.3,11.85.3,11.85.3,11.85,1.44,56.08h8.17V172.4h4v46.94H162l1.44-56.08.3-11.85.3-11.85.3-11.85h4l-.3,11.85-.3,11.85Zm-17.8,60.08h-9.16l-4.36,5.47h13.52ZM37.45,146.12V127.76h-4v18.36h0v15.11h0v4.89a3.3,3.3,0,0,1-1,2.34,3.39,3.39,0,0,1-2.36,1,3.32,3.32,0,0,1-3.3-3.34l.05-4.85h-4V166a7.23,7.23,0,0,0,7.21,7.37h.06a7.32,7.32,0,0,0,7.32-7.28v-20ZM112.89,173h-4c0,4.36-2.41,6-4.32,6.71l-.45-6.72h0l-.83-12.51-1.49-22.28-.29-4.39h-4l.29,4.38,1.49,22.28,1.49,22.28L102.26,205h4l-1.42-21.28C107.94,182.93,112.89,180.49,112.89,173ZM74.3,182.73l1.49-22.28,1.49-22.28.29-4.38h-4l-.29,4.39-1.49,22.28L71,173h0l-.45,6.75c-1.91-.63-4.36-2.3-4.36-6.75h-4c0,7.56,5,10,8.1,10.77L68.81,205h4ZM216,219.93h-5L210.41,205h-4l.62,16.25-9.21,11.55H220v-4H206.12l3.89-4.88h10V205h-4Zm4.45-55.84v5a3.33,3.33,0,0,1-3.32,3.31h0a3.32,3.32,0,0,1-3.31-3.36l0-5,0-6.07h0l-.1-20.55,0-9.7-4,0,0,9.68.1,20.56h0l.05,11a7.33,7.33,0,0,0,7.29,7.36h0a7.32,7.32,0,0,0,7.32-7.3v-5h-4Zm10.68-57.15v2a6.69,6.69,0,0,1-6.87,6.9H213.65v-19c-.06-.85-.71-6.7-6.94-6.7a5.9,5.9,0,0,0-4.44,1.59,8.07,8.07,0,0,0-1.9,5.09V101h2.37v2c0,5.27,6.07,5.47,6.76,5.47v4c-3.36,0-9.44-1.62-10.57-7.47h-2.55V96.86a12.08,12.08,0,0,1,3-7.92,9.81,9.81,0,0,1,7.29-2.79c8.22,0,10.75,6.89,10.94,10.54v.61h2.4c3,0,6.19,3.45,6.19,6.7a2.76,2.76,0,0,0,2.87,3Zm-4.41,3.59a6.77,6.77,0,0,1-4.46-6.54,3.33,3.33,0,0,0-2.19-2.7h-2.4v10.56h6.59A2.39,2.39,0,0,0,226.7,110.54ZM45.19,89a9.81,9.81,0,0,0-7.3-2.79c-8.22,0-10.75,6.89-10.94,10.54v19.87a7.92,7.92,0,0,1,2.83-.71H31v-19c0-.63.63-6.7,6.94-6.7a5.91,5.91,0,0,1,4.43,1.58,8.08,8.08,0,0,1,1.91,5.14V101H41.87v2c0,5.27-6.07,5.47-6.76,5.47v4c3.36,0,9.44-1.62,10.57-7.47h2.55V96.92A12.09,12.09,0,0,0,45.19,89Zm115,7.85v-.1c-.19-3.64-2.72-10.54-10.94-10.54A9.81,9.81,0,0,0,141.95,89a12.08,12.08,0,0,0-3,7.92V105h2.55c1.13,5.85,7.21,7.47,10.57,7.47v-4c-.28,0-6.75-.06-6.75-5.47v-2H142.9V96.86a8.07,8.07,0,0,1,1.9-5.09,5.9,5.9,0,0,1,4.44-1.59c6.23,0,6.88,5.85,6.94,6.7v19h4ZM40.68,220.63l1.71-44.29h-4l-1.66,42.91h-9.9V176.35h-4v46.91H37.65l4.12,5.55H22.83v4H49.71Z"/></g></svg>