<svg id="Pictograms" xmlns="http://www.w3.org/2000/svg" viewBox="0 0 240 240"><defs><style>.cls-1{fill:#970a82;}.cls-2,.cls-3,.cls-4{fill:#f0ab00;}.cls-3{opacity:0.4;}.cls-4{opacity:0.7;}</style></defs><title>281146-pictogram</title><path class="cls-1" d="M150.53,152l-1.9-15.79h10.44s-7.25-78.5-7.39-80.68S148.57,44,139.31,44H96.72c-9.27,0-12.24,9.3-12.38,11.54C84.28,56.62,82.48,76,80.67,96H48v20H90.49L88,136H88l-2.18,16H86l-4.87,36h74l-4.62-36Z"/><path class="cls-2" d="M90.83,116l4.31-36H140.9l5.31,36,2.43,20.21h10.44s-7.25-78.5-7.39-80.68S148.57,44,139.31,44H96.72c-9.27,0-12.24,9.3-12.38,11.54C84.28,56.62,82.48,76,80.67,96H48v20"/><polygon class="cls-3" points="150.53 152 146.21 116 90.83 116 85.86 152 150.53 152"/><polygon class="cls-4" points="95.14 80 90.83 116 146.21 116 140.9 80 95.14 80"/><path d="M14.41,39.41l-2.83-2.83,8.66-8.66,7,4.64L32,22.82,38.46,26h8.16l5.59-14.71,3.74,1.42L49.38,30H37.54l-3.73-1.82-5,10.26-8-5.36ZM128,80h4V65.5h-4ZM104.16,28H100V15.9a16,16,0,0,1,32,0V16h4a10.28,10.28,0,0,1,10,10h0A6.2,6.2,0,0,0,152,32h2l0,2a10.27,10.27,0,0,1-10,10H128V15.9a12,12,0,0,0-24,0V24h4v2a10,10,0,0,0,9.76,10h2.28v4h-2.28A13.85,13.85,0,0,1,104.16,28ZM132,40h12a6.33,6.33,0,0,0,5.71-4.3,10.3,10.3,0,0,1-7.63-9.7h0a6.35,6.35,0,0,0-6-6h-4ZM120.2,236H148v4H79.49L102,221.12,100.18,188h4l1.72,32h10.3V80.4L102.31,44.72,106,43.27,120.2,79.64V220h9.9l1.7-32h4l-1.91,36H120.2Zm-4-12H104.75L90.45,236H116.2Zm35.6-77.59C154.62,144,156,140.55,156,136h-4a11.62,11.62,0,0,1-.92,4.93l-9.32-72.41-4,.51,15.36,119.3,4-.51ZM68,52H0V0H68ZM64,4H4V48H64ZM48,109.94H40.94a4.94,4.94,0,0,1,0-9.87H48v-4H43.84l-7.92-28.6-3.86,1.07,7.65,27.62a8.93,8.93,0,0,0,1.22,17.78H48ZM98.58,69l-4-.51L79.25,187.78l4,.51Z"/></svg>