<svg id="Pictograms" xmlns="http://www.w3.org/2000/svg" viewBox="0 0 240 240"><defs><style>.cls-1{fill:#008fd3;}.cls-2,.cls-3,.cls-4{fill:#f0ab00;}.cls-2{opacity:0.7;}.cls-3{opacity:0.4;}</style></defs><title>281205-pictogram</title><path class="cls-1" d="M164,76a11.69,11.69,0,0,0-12-12v0l-11.95,0-.05.05v0c-9.33,0-16,6.66-16,16h0v32H96v20h28v24h40Z"/><rect class="cls-2" x="124" y="88" width="40" height="24"/><rect class="cls-3" x="96" y="112" width="68" height="20.01"/><path class="cls-4" d="M164,76a11.69,11.69,0,0,0-12-12v0l-11.95,0-.05.05v0c-9.33,0-16,6.66-16,16h0v8h40l-.06-12Z"/><path d="M124.17,48,120,48V35.95a16,16,0,0,1,32,0V64h-4V35.95a12,12,0,0,0-24,0V44l4,0v2a10,10,0,0,0,9.76,10h2.28v4h-2.28A13.87,13.87,0,0,1,124.17,48ZM154.6,176H164v20H140v40h16v4H120v-4h16V196H108V176h34.13A18.09,18.09,0,0,0,160,157.87V156h4v1.87A22.16,22.16,0,0,1,154.6,176Zm-12.33,4H112v12h48V180ZM60,148v92H56V148H44v92H40V128h0v-.36L52,63.81V32H72v72H56v-4H68V36H56l0,28.37L44,128H82.51A11,11,0,0,1,91,110l47,0V88h4v26l-51,0a7,7,0,0,0-.06,14H96v20Zm-16-4H92V132H44v12Zm43.5,31.36A19.52,19.52,0,0,1,107,156h17v-4H107a23.53,23.53,0,0,0-23.5,23.5v.16l7.36,45.61L71,240h41v-4H81l12.75-12H112v-4H94.7Z"/></svg>