<svg xmlns="http://www.w3.org/2000/svg" viewBox="0 0 248 248"><defs><style>.cls-1{fill:#970a82;}.cls-2,.cls-3,.cls-4{fill:#f0ab00;}.cls-3{opacity:0.7;}.cls-4{opacity:0.4;}</style></defs><title>282040-picrogram</title><g id="color_band" data-name="color band"><path class="cls-1" d="M148.13,155.1a7.62,7.62,0,0,1,7.62-7.62h5.56v13.25H198L193.09,109c-.34-2.79-2.55-9.33-9.72-9.33H135.31c-6.37,0-8.94,5.49-9.23,8.31l-1.87,37.48H108.62v15.26h42A7.6,7.6,0,0,1,148.13,155.1Z"/></g><g id="_100_band" data-name="100% band"><path class="cls-2" d="M183.37,99.68H135.31c-6.37,0-8.94,5.49-9.23,8.31l-.35,7h67.92l-.57-5.93C192.75,106.23,190.54,99.68,183.37,99.68Z"/></g><g id="_70_band" data-name="70% band"><polygon class="cls-3" points="195.11 130.21 193.66 114.95 125.73 114.95 124.97 130.21 195.11 130.21"/></g><g id="_40_band" data-name="40% band"><polygon class="cls-4" points="106.62 145.47 106.62 145.48 196.57 145.48 195.11 130.21 124.97 130.21 124.21 145.47 106.62 145.47"/></g><g id="outlines_--_combound_path" data-name="outlines -- combound path"><path d="M209.18,164.73v-4H163.3V149.48h19.75l-2.37-26.14-4,.36,2,21.78H163.3V134.15l-9.53-35.5-3.86,1,9.39,35v10.79h-3.54A9.61,9.61,0,0,0,148,160.73h-6.59l1.85-37.84-4-.2-1.86,38H108.62V145.47h-7.53a9.61,9.61,0,0,0-7.78,15.26h-15V145.48H63.13l1.73-13.42h43.77V66.24H30.75v65.82H45.58l-1.73,13.42H30.78v4H74.31v11.25H30.75V177.8H209.18v-4H34.75v-9.07ZM101.09,149.47h3.53v11.25h-3.53a5.63,5.63,0,0,1,0-11.25Zm54.67,0h3.53v11.25h-3.53a5.63,5.63,0,0,1,0-11.25Zm-121-21.41V70.24h69.88v57.82H65.37l4.5-34.85H50.59l-4.5,34.85Zm13.14,17.42L54.11,97.2H65.32l-6.23,48.28ZM175.36,65.53a9.58,9.58,0,0,0-6.9,2.94,12.87,12.87,0,0,0-11.58-7.31h0A12.88,12.88,0,0,0,144,74h0v8.59h2.36a10.7,10.7,0,0,0,10.5,8.69v-4a6.69,6.69,0,0,1-6.69-6.69v-2H148V74h0a8.86,8.86,0,0,1,17.72,0V99.67h4V82.95a9.62,9.62,0,1,0,5.62-17.41Zm0,15.25A5.62,5.62,0,1,1,181,75.16,5.63,5.63,0,0,1,175.36,80.78Z"/></g></svg>