<svg id="Pictograms" xmlns="http://www.w3.org/2000/svg" viewBox="0 0 240 240"><defs><style>.cls-1{fill:#970a82;}.cls-2,.cls-3,.cls-4{fill:#f0ab00;}.cls-3{opacity:0.7;}.cls-4{opacity:0.4;}</style></defs><title>280997-pictogram</title><polygon class="cls-1" points="174.1 84 120.1 68.14 66.1 84 12.1 100 66.1 116 120.1 131.86 174.1 116 228.1 100 174.1 84"/><polygon class="cls-2" points="120.1 68.03 66.1 84 174.1 84 120.1 68.03"/><polygon class="cls-3" points="174.1 84 66.1 84 12.1 100 228.1 100 174.1 84"/><polygon class="cls-4" points="228.1 100 12.1 100 66.1 116 174.1 116 228.1 100"/><path d="M154.46,121.64,162.11,144h-84l7.65-22.36L82,120.35,62.92,176H177.28l-19-55.65Zm9,26.36,2.74,8H74l2.74-8Zm-95,24,4.1-12h95l4.1,12Zm141.54,12.5L204,160.85V192h-4V160.85l-6.06,23.64-3.87-1,9.73-38L160,101.85H120.1v-4h40.78a2,2,0,0,1,1.48.65l41.12,45.15a2,2,0,0,1,.46.85l10,39Z"/></svg>