<?xml version="1.0" encoding="utf-8"?>
<!-- Generator: Adobe Illustrator 21.0.0, SVG Export Plug-In . SVG Version: 6.00 Build 0)  -->
<svg version="1.1" id="Layer_1" xmlns="http://www.w3.org/2000/svg" xmlns:xlink="http://www.w3.org/1999/xlink" x="0px" y="0px"
	 viewBox="0 0 248 248" style="enable-background:new 0 0 248 248;" xml:space="preserve">
<style type="text/css">
	.st0{fill:#E35500;}
	.st1{fill:#F0AB00;}
	.st2{opacity:0.7;fill:#F0AB00;enable-background:new    ;}
	.st3{opacity:0.4;fill:#F0AB00;enable-background:new    ;}
</style>
<title>282747_ManScientistTshirt_R</title>
<g id="outlines_--_combound_path">
	<path d="M47.53,99.39l-7.78-28.1l-3.85,1.06l7.81,28.21c-5.25,2.77-7.27,9.27-4.5,14.52c1.86,3.53,5.51,5.73,9.5,5.74H54v-4h-5.29
		c-3.73,0-6.75-3.02-6.75-6.75s3.02-6.75,6.75-6.75l0,0H54v-4h-5.29C48.32,99.32,47.92,99.34,47.53,99.39z"/>
	<polygon points="50.81,29.32 42.65,29.32 36.16,26.14 31.4,35.89 24.44,31.25 15.78,39.91 18.61,42.73 24.95,36.39 32.98,41.75 
		38,31.5 41.73,33.32 53.57,33.32 60.14,16.03 56.4,14.61 	"/>
	<path d="M6,50.73h61.67V7.4H6V50.73z M10,11.4h53.67v35.33H10V11.4z"/>
	<path d="M119.59,45.5h2.28v-4h-2.28c-5.39-0.01-9.75-4.37-9.76-9.76v-2.22h-4v-8.09c0.01-6.63,5.38-12,12.01-11.99
		c6.62,0.01,11.99,5.37,11.99,11.99v28.08h4V21.43c0-8.84-7.16-16-16-16s-16,7.16-16,16v12.09h4.14
		C106.87,40.36,112.69,45.48,119.59,45.5z"/>
</g>
<g id="color_band">
	<path class="st0" d="M150.1,49.51h-60c-6.38-0.25-11.75,4.72-12,11.1c-0.01,0.3-0.01,0.6,0,0.9v36h-24v24H92l0.86,24h69.24v-84
		c0.25-6.37-4.71-11.75-11.08-12C150.71,49.5,150.41,49.5,150.1,49.51z"/>
</g>
<g id="_100_band">
	<path class="st1" d="M162.1,61.51c0.25-6.37-4.71-11.75-11.08-12c-0.31-0.01-0.61-0.01-0.92,0h-60c-6.38-0.25-11.75,4.72-12,11.1
		c-0.01,0.3-0.01,0.6,0,0.9v12h84V61.51z"/>
</g>
<g id="_70_band">
	<rect x="78.1" y="73.51" class="st2" width="84" height="24"/>
</g>
<g id="_40_band">
	<rect x="54.1" y="97.51" class="st3" width="108" height="24"/>
</g>
<g id="outline">
	<path d="M157.76,145.51V147c-0.01,5.77-4.69,10.45-10.46,10.46h-1l3-84h-3.76l-5.74,152h-18v-80h-4v80H99.73l-5.43-152l-4,0.14
		l5.48,153.3l-14,18.64h70.5v-4H121.8v-12h21.93l2.46-68h1.11c7.99-0.01,14.47-6.49,14.46-14.48c0-0.02,0-0.04,0-0.06v-1.53
		L157.76,145.51z M117.76,241.51h-28l9-12h19V241.51z"/>
</g>
</svg>
