<svg xmlns="http://www.w3.org/2000/svg" viewBox="0 0 248 248"><defs><style>.cls-1{fill:#008fd3;}.cls-2,.cls-3,.cls-4{fill:#f0ab00;}.cls-3{opacity:0.7;}.cls-4{opacity:0.4;}</style></defs><title>283457-pictogram</title><g id="color_band" data-name="color band"><path class="cls-1" d="M215.3,74.45V110.9h-24v-6.74h14.81V85.27h-4v14.89H191.26V93l-1.52-3.62-4.52-10.74L180.7,67.95h28.65C214.22,67.95,215.3,72.89,215.3,74.45Zm-34.43,4.24-4.19-10,1.86-.78h-9.39c-4.87,0-6,4.94-6,6.5v25.71H151.51V110.9h20.94V85.27h4V110.9h2.42a7.35,7.35,0,0,1,6.45-10.74h1.94V93.85l-1.86-4.43Z"/></g><g id="_100_band" data-name="100% band"><path class="cls-2" d="M215.3,78.69H185.22L180.7,67.95h28.65c4.87,0,6,4.94,6,6.5Zm-52.1-4.24v4.24h17.67l-4.19-10,1.86-.78h-9.39C164.29,67.95,163.21,72.89,163.21,74.45Z"/></g><g id="_70_band" data-name="70% band"><path class="cls-3" d="M215.3,89.43h-9.23V85.27h-4v4.16H189.73l-4.52-10.74H215.3Zm-52.1,0h9.25V85.27h4v4.16h8.94l-4.52-10.74H163.21Z"/></g><g id="_40_band" data-name="40% band"><path class="cls-4" d="M215.3,100.16h-9.23V89.43h9.23Zm-52.1,0h9.25V89.43h-9.25ZM191.26,93v7.11h10.81V89.43H189.73Zm-14.8,7.12h10.8V93.85l-1.86-4.43h-8.94Z"/></g><g id="outlines_--_combound_path" data-name="outlines -- combound path"><path d="M176.63,57h-1.78V50.33a9.65,9.65,0,1,1,19.3,0V67.95h-4V50.33a5.65,5.65,0,1,0-11.3,0V53h1.53v2a4.12,4.12,0,0,0,4.12,4.12v4A8.13,8.13,0,0,1,176.63,57ZM232.2,31.42v83.48H126V31.42Zm-84.68,72.73h-1.83a3.37,3.37,0,1,0,0,6.74h1.83ZM228.2,35.42H130v75.48h9.17a7.36,7.36,0,0,1,6.54-10.75h5.83V110.9h20.94V85.27h4V110.9h2.42a7.35,7.35,0,0,1,6.45-10.74h1.94V93.85l-1.86-4.43-4.52-10.74-4.19-10,1.86-.78,1.82-.77.32.77,4.52,10.74,4.52,10.74L191.26,93v7.11h10.81V85.27h4v18.89H191.26v6.74H228.2ZM185.42,110.9h1.83v-6.74h-1.83a3.37,3.37,0,1,0,0,6.74Zm-91.52,95h-90v-4H68.11V111.7h4v66.21h53.32v-22.5H91.62V87.9c0-3-2.16-14.05-12.71-14.05H3.85v-4H20.16V28.66a20.91,20.91,0,0,1,41.81,0V40.11A17.11,17.11,0,0,1,44.88,57.2v-4A13.11,13.11,0,0,0,58,40.11V28.66a16.91,16.91,0,0,0-33.81,0V69.85H78.91C91.54,69.85,95.62,82,95.62,87.9v63.51h41.28a15.24,15.24,0,0,1,10.26,26.52h16.66V152.64h24.51l-3.9-26.32H114.55V20H243.61v106.3H215l3.9,26.32h24.71v4H167.82v21.28h75.79V240h-4V205.89H167.82V240h-4V205.89H109.38a32.34,32.34,0,0,1,16.76,28.32l0,1.32L125.4,240h-4.05l.79-5v-.84A28.35,28.35,0,0,0,93.9,205.89Zm121-53.26-3.9-26.3H188.48l3.89,26.3Zm24.75-30.32V24H118.55v98.3Zm-110.18,55.6h7.46a11.26,11.26,0,1,0,0-22.52h-7.46Zm-57.32,24h167.5v-20H72.11ZM3.85,240H83.2v-4H3.85Z"/></g></svg>