<svg id="Pictograms" xmlns="http://www.w3.org/2000/svg" viewBox="0 0 240 240"><defs><style>.cls-1{fill:#008fd3;}.cls-2,.cls-3,.cls-4{fill:#f0ab00;}.cls-3{opacity:0.7;}.cls-4{opacity:0.4;}</style></defs><title>281072-pictogram</title><path d="M144,156h36V136H144Zm4-16h28v12H148Zm-4-40h36V80H144Zm4-16h28V96H148Zm-4,44h36V108H144Zm4-16h28v12H148Zm32-60H96V72h84Zm-4,16H100V56h76ZM76,120H60v20H76Zm-4,16H64V124h8Zm4-44H60v20H76Zm-4,16H64V96h8ZM192,208V40H100V28H84V80H48V208H40v4H88V84h44V212h68v-4ZM88,32h8v7.71H88ZM72,164H64V152h8Zm0,4v8H64v-8Zm-8,12h8v28H64Zm20,28H76V148H60v60H52V84H84ZM88,80V44H188V208h-8V164H144v44h-8V80Zm88,96H148v-8h28Zm-16,4v28H148V180Zm4,0h12v28H164Z"/><rect class="cls-1" x="50" y="138" width="120" height="28" transform="translate(262 42) rotate(90)"/><rect class="cls-2" x="95" y="93" width="30" height="28" transform="translate(217 -3) rotate(90)"/><rect class="cls-3" x="95" y="123" width="30" height="28" transform="translate(247 27) rotate(90)"/><rect class="cls-4" x="95" y="153" width="30" height="28" transform="translate(277 57) rotate(90)"/></svg>