<svg xmlns="http://www.w3.org/2000/svg" viewBox="0 0 248 248"><defs><style>.cls-1{fill:#008fd3;}.cls-2,.cls-3,.cls-4{fill:#f0ab00;}.cls-3{opacity:0.7;}.cls-4{opacity:0.4;}</style></defs><title>282126-pictogram</title><g id="color_band" data-name="color band"><rect class="cls-1" x="78.24" y="166.94" width="18.79" height="18.79"/><rect class="cls-1" x="78.24" y="137.91" width="18.79" height="18.79"/><rect class="cls-1" x="78.24" y="108.88" width="18.79" height="18.79"/><rect class="cls-1" x="78.24" y="79.85" width="18.79" height="18.79"/></g><g id="_100_band" data-name="100% band"><rect class="cls-2" x="78.24" y="79.85" width="18.79" height="18.79"/></g><g id="_70_band" data-name="70% band"><rect class="cls-3" x="78.24" y="108.88" width="18.79" height="18.79"/></g><g id="_40_band" data-name="40% band"><rect class="cls-4" x="78.24" y="137.91" width="18.79" height="18.79"/></g><g id="outlines_--_combound_path" data-name="outlines -- combound path"><path d="M175.94,38.63H143.43V29.32H96.85v9.31H64.33a10,10,0,0,0-10,10V200.22a10,10,0,0,0,10,10H175.94a10,10,0,0,0,10-10V48.65A10,10,0,0,0,175.94,38.63Zm-75.09-5.31h38.58V47.77L153,55.6l2.76,4.3H84.49l2.76-4.3,13.59-7.83ZM163.11,63.9h7.16V194.46H70V63.9h93.09ZM182,200.22a6,6,0,0,1-6,6H64.33a6,6,0,0,1-6-6V48.65a6,6,0,0,1,6-6H96.85v2.82L84.42,52.62,79.74,59.9H66V198.46H174.26V59.9H160.54l-4.68-7.29-12.43-7.16V42.63h32.51a6,6,0,0,1,6,6ZM131.42,48.61H108.86V39.33h4v5.29h14.56V39.33h4ZM86.64,182.16l-8.5-8.5L81,170.83l5.67,5.67L102.15,161l2.83,2.83Zm74.52-.82H105.22v-4h55.93ZM86.64,153.13l-8.5-8.5L81,141.8l5.67,5.67,15.51-15.54,2.83,2.83Zm74.52-.82H105.22v-4h55.93ZM86.64,124.1l-8.5-8.5L81,112.77l5.67,5.67,15.51-15.54,2.83,2.83Zm74.52-.82H105.22v-4h55.93ZM86.64,95.08l-8.5-8.5L81,83.75l5.67,5.67,15.51-15.54L105,76.71Zm74.52-.82H105.22v-4h55.93Z"/></g></svg>