<svg id="Pictograms" xmlns="http://www.w3.org/2000/svg" viewBox="0 0 240 240"><defs><style>.cls-1{fill:#970a82;}.cls-2,.cls-3,.cls-4{fill:#f0ab00;}.cls-3{opacity:0.7;}.cls-4{opacity:0.4;}</style></defs><title>281001-pictogram</title><polygon class="cls-1" points="72 105.13 72 138.13 72 171.13 72 204.13 72 237.13 112 237.13 112 204.13 112 171.13 112 138.13 112 105.13 72 105.13"/><rect class="cls-2" x="72" y="105.12" width="40" height="33"/><rect class="cls-3" x="72" y="138.12" width="40" height="33"/><rect class="cls-4" x="72" y="171.12" width="40" height="33"/><path d="M177.32,140H50.23c-15.62,0-30.39-16.33-30.39-33.61A33.64,33.64,0,0,1,53.38,72.79,33.6,33.6,0,0,1,84,45.77C86.84,39,91.1,33.92,96.59,28.43a56.25,56.25,0,0,1,79.46,0c8.44,8.44,13.31,17.57,15.27,28.65a42.64,42.64,0,0,1-14,82.92ZM53.44,76.79a29.64,29.64,0,0,0-29.61,29.61c0,15.22,12.82,29.61,26.39,29.61h127.1a38.64,38.64,0,0,0,11.62-75.49l-1.18-.37-.19-1.23c-1.68-10.75-6.24-19.54-14.35-27.65a52.25,52.25,0,0,0-73.8,0C94,36.71,89.82,41.71,87.27,48.42l-.48,1.25-1.34,0A29.59,29.59,0,0,0,57,75.11l-.26,1.81L55,76.83Q54.19,76.79,53.44,76.79Z"/><polygon class="cls-1" points="128 70.08 128 103.08 128 136.08 128 169.08 128 202.08 168 202.08 168 169.08 168 136.08 168 103.08 168 70.08 128 70.08"/><rect class="cls-2" x="128" y="169.08" width="40" height="33"/><rect class="cls-3" x="128" y="136.08" width="40" height="33"/><rect class="cls-4" x="128" y="103.08" width="40" height="33"/></svg>