<svg id="Pictograms" xmlns="http://www.w3.org/2000/svg" viewBox="0 0 240 240"><defs><style>.cls-1{fill:none;}.cls-2{fill:#970a82;}.cls-3,.cls-4,.cls-5{fill:#f0ab00;}.cls-4{opacity:0.7;}.cls-5{opacity:0.4;}</style></defs><title>281602-pictogram</title><polygon class="cls-1" points="58.8 94.58 61.27 121.9 75.47 121.9 72.89 93.35 58.8 94.58"/><polygon class="cls-1" points="156.76 207.52 159.32 178.29 132.45 178.29 130.1 205.18 156.76 207.52"/><polygon class="cls-2" points="83.11 206.29 69.01 207.52 58.8 94.58 72.89 93.35 83.11 206.29"/><polygon class="cls-3" points="83.11 206.29 80.64 178.97 66.43 178.97 69.01 207.52 83.11 206.29"/><polygon class="cls-4" points="80.64 178.97 78.05 150.43 63.85 150.43 66.43 178.97 80.64 178.97"/><polygon class="cls-5" points="78.05 150.44 75.47 121.89 61.27 121.89 63.85 150.44 78.05 150.44"/><rect class="cls-2" x="90.95" y="135.69" width="114.99" height="26.76" transform="translate(-13 283.96) rotate(-85)"/><polygon class="cls-3" points="140.12 90.63 137.56 119.86 164.43 119.86 166.78 92.96 140.12 90.63"/><polygon class="cls-4" points="161.88 149.07 164.43 119.85 137.57 119.85 135.01 149.07 161.88 149.07"/><polygon class="cls-5" points="159.32 178.3 161.88 149.08 135.01 149.08 132.45 178.3 159.32 178.3"/><path d="M58.8,207.52H30.08V64.93H58.8Zm-24.72-4H54.8V68.93H34.08ZM190.47,94V42.38H166.78V207.52h43.45V94Zm-19.69,109.5V46.38h15.69V203.52Zm35.45,0H190.47V98h15.76Zm-105.07,4L73.79,103.37l20.7-5.54L121.86,202ZM78.67,106.21,104,202.61l13-3.47L91.64,102.73Z"/></svg>