<svg xmlns="http://www.w3.org/2000/svg" viewBox="0 0 248 248"><defs><style>.cls-1{fill:#008fd3;}.cls-2,.cls-3,.cls-4{fill:#f0ab00;}.cls-3{opacity:0.7;}.cls-4{opacity:0.4;}</style></defs><title>283634-pictogram</title><g id="color_band" data-name="color band"><path class="cls-1" d="M150.34,110.44l-.72-.6,1.57-13,.29-2.41A13.49,13.49,0,0,1,164.29,83h8.06c6.32,0,7.11,6.16,7,7.39L179,93.5l-.41,3.3-1.05,8.66L177,109.4l-.15,1.25-1.7,13.85-1.64,13.33c0,.17-.06.34-.09.51H146.17l1.09-9h0l.58-4.79h0v0h0L125,104.88h0l5.21-6.14,20.66,17.34,4.54-5.43,9.29-11.1L161.61,97ZM93.6,71.29A24.84,24.84,0,0,1,92,80.52h0c-2,4.93-5.37,8-8.61,11.16a47.6,47.6,0,0,0-3.46,3.67h0a23,23,0,0,0-1.64,2.23,32.4,32.4,0,0,0-5,12.55H73a32.29,32.29,0,0,0-5-12.52,23.24,23.24,0,0,0-1.67-2.26h0a45.65,45.65,0,0,0-3.43-3.64c-3.24-3.14-6.66-6.25-8.61-11.2h0a24.78,24.78,0,0,1-1.6-9.23h4a16.6,16.6,0,0,1,4.82-11.63A16.46,16.46,0,0,1,81.38,57a16.57,16.57,0,0,1,3.4,2.61h0A16.58,16.58,0,0,1,89.6,71.29Zm-10.83,1a9.65,9.65,0,1,0-4.66,8.23A9.58,9.58,0,0,0,82.76,72.29Z"/></g><g id="_100_band" data-name="100% band"><path class="cls-2" d="M151.48,94.39A13.49,13.49,0,0,1,164.29,83h8.06c6.43,0,7.14,6.4,7,7.47s-.8,6.38-.8,6.38H151.19ZM84.78,59.65A16.45,16.45,0,0,0,64.92,57a16.76,16.76,0,0,0-3.41,2.62,16.39,16.39,0,0,0-3.82,6h8.49a9.58,9.58,0,0,1,13.93,0H88.6a16.38,16.38,0,0,0-3.82-6Z"/></g><g id="_70_band" data-name="70% band"><path class="cls-3" d="M56.69,71.29a16.43,16.43,0,0,1,1-5.61h8.49a9.58,9.58,0,0,0,2,14.84H54.3a24.78,24.78,0,0,1-1.6-9.23Zm32.91,0a16.43,16.43,0,0,0-1-5.61H80.11a9.58,9.58,0,0,1-2,14.84H92a24.84,24.84,0,0,0,1.6-9.23Zm72,25.7,3.07,2.57-9.29,11.1h21.49l.15-1.25,1.54-12.6H151.19l-1.57,13,.72.6Z"/></g><g id="_40_band" data-name="40% band"><path class="cls-4" d="M54.31,80.52H68.19a9.53,9.53,0,0,0,9.91,0H92c-2,4.93-5.37,8-8.61,11.16a47.6,47.6,0,0,0-3.46,3.67H66.35a45.65,45.65,0,0,0-3.43-3.64C59.68,88.57,56.26,85.46,54.31,80.52ZM125,104.88,147.8,124.5h27.37l1.7-13.85H155.38l-4.54,5.43L130.17,98.75Z"/></g><g id="outlines_--_combound_path" data-name="outlines -- combound path"><path d="M150.72,70.92H148.5v-8.1a12.06,12.06,0,0,1,24.13,0h0V83h-4V62.82h0a8.06,8.06,0,1,0-16.12,0v4.1h2v2a6.05,6.05,0,0,0,6,6v4A10.06,10.06,0,0,1,150.72,70.92Zm-94,.37a16.6,16.6,0,0,1,4.82-11.63A16.46,16.46,0,0,1,81.38,57a16.57,16.57,0,0,1,3.4,2.61h0A16.58,16.58,0,0,1,89.6,71.29h4A20.3,20.3,0,0,0,90.75,60.9h0a20.35,20.35,0,0,0-1.17-1.75l-.35-.47L88.67,58c-.26-.3-.53-.6-.81-.89h0l-.26-.29h0a20.55,20.55,0,0,0-4.23-3.25L83,53.41c-.37-.21-.75-.4-1.14-.58l-.46-.21c-.5-.22-1-.43-1.52-.61l-.16-.06h0l-.57-.18-.27-.08-.46-.14-.72-.17-.59-.14-.81-.14L75.86,51l-.72-.07c-.66-.07-1.33-.11-2-.11-.46,0-.91,0-1.36,0h0q-.65,0-1.3.13h0l-.61.1-.39.07-.32.05h0l-.7.16-.6.14-.59.18-.7.22-.32.12h0c-.5.18-1,.38-1.47.6l-.37.17c-.4.19-.79.4-1.18.61l-.26.14a20.81,20.81,0,0,0-4.23,3.25l-.23.25h0c-.3.31-.58.62-.86.95l-.51.62c-.16.2-.31.42-.46.63h0q-.55.75-1,1.53l-.09.15h0l0,.06q-.29.5-.56,1a20.28,20.28,0,0,0-2.23,9.25h4ZM200,194.25v4H188.48c-7.1,0-13.9-.36-19.07-4.72-.84-.71-6.08-5.45-6.51-5.84-11,5.94-26.69,10.57-48.81,10.57H52.15v-4H72.36V167.53h-28V152h8.55V125.31l15.38,13.33L88,136.87l17.78-24.42c3.86-5.83,7.67-8.89,11.69-9.45h0a8,8,0,0,1,1-8.87,7.94,7.94,0,0,1,3.39-2.37L107.72,79.91l2.57-3.06,39.32,33,.72.6L161.61,97l3.07,2.57-13.84,16.53L127.08,96.15a4,4,0,0,0-5.07,6.19l3,2.54L147.8,124.5l0,0h0l-.58,4.79h0l-23-19.91C122,107.5,120,106.69,118,107c-2.77.38-5.8,3-8.94,7.76L89.23,142h11.7v0l18.18-18.47,2.85,2.81-8,8.15,19-1.71.36,4-23.72,2.13-12.8,13h62.32c8,0,13.19-6.72,14.33-13.61,0-.17.07-.34.09-.51l1.64-13.33,1.7-13.85.15-1.25.48-3.94,1.47-12,.39-3.15,4.74-38.6h15.61v60.47c0,13.44,0,34.78-14.16,55l-.22.33a77.68,77.68,0,0,1-7.05,8.57,59.25,59.25,0,0,1-11.74,9.49c.09.09,4.66,4.22,5.45,4.89,4.14,3.49,10.16,3.78,16.49,3.78ZM195.71,84.32l-9,73.43c9-16.76,9-33.49,9-45.53ZM175.83,152h7.54l11.81-96.2h-7.54Zm-5.64,0h1.61l.21-1.72A18.69,18.69,0,0,1,170.19,152Zm-42,11.58H182l.91-7.58H128.2ZM85.29,146,75.64,152H91.18L97,146ZM69,151.36,84.16,142h.12l.63-.87L69,142.59Zm-12.09.6H65V141.09l-8.09-7Zm43.52,11.58V156H48.32v7.58Zm59.34,21.3c-4.87-4.38-10.38-9.27-13.62-11.79-5.87-4.57-10.59-5.51-15.86-5.51H124.2V156h-19.8v11.58h-28v26.73h36.95C134.25,194.36,149.17,190.23,159.73,184.83Zm3.71-2a55.74,55.74,0,0,0,11.94-9.44,76.15,76.15,0,0,0,5-5.81h-35.2a36,36,0,0,1,3.4,2.35C152.13,172.66,158.29,178.15,163.44,182.79ZM73.15,81.91a9.65,9.65,0,1,1,5-1.39A9.55,9.55,0,0,1,73.15,81.91Zm0-4a5.62,5.62,0,1,0-5.62-5.62A5.62,5.62,0,0,0,73.15,77.91Z"/></g></svg>